# xmcd
#
# Track frame offsets:
#	182
#	16362
#	34127
#	49817
#	66655
#	86147
#	105030
#	122750
#	137430
#	154345
#
# Disc length: 2242 seconds
# Revision: 0
# Processed by: cddbd v1.5.2PL0 Copyright (c) Steve Scherf et al.
# Submitted via: dBpowerAMP V12.0
#
DISCID=8208c00a
DTITLE=Rick Astley - Whenever you need somebody
DYEAR=1987
DGENRE=Eurodisco
TTITLE0=Never gonna give you up
TTITLE1=Whenever you need somebody
TTITLE2=Together Forver
TTITLE3=It would take a strong strong Man
TTITLE4=The Love has gone
TTITLE5=Don't say Goodbye
TTITLE6=Slipping away
TTITLE7=No more looking for Love
TTITLE8=You move me
TTITLE9=When I fall in Love
EXTD=
EXTT0=
EXTT1=
EXTT2=
EXTT3=
EXTT4=
EXTT5=
EXTT6=
EXTT7=
EXTT8=
EXTT9=
PLAYORDER=
